<svg width="106" height="106" xmlns="http://www.w3.org/2000/svg">
 <!-- Created with SVG-edit - http://svg-edit.googlecode.com/ -->
 <g>
  <title>Layer 1</title>
  <g id="svg_120">
   <path id="svg_2" fill="#313131" d="m85.300049,34.800003c2.600952,-3.300003 5.299988,-6.5 7.899963,-9.900009c0.100037,-0.099991 0.100037,-0.099991 0.100037,-0.099991c-2.900085,-3.900009 -6.400085,-7.300003 -10.5,-10.300003c0,0 0,0 0,0.100006c-3.300049,2.599991 -6.5,5.299988 -9.600037,8c-1.300049,-0.800003 -2.500061,-1.5 -3.800049,-2c-1.5,-0.800003 -3.100952,-1.400009 -4.800964,-1.900009c-0.600037,-0.199997 -1.199036,-0.300003 -1.799988,-0.5c-0.299011,-4.199997 -0.799011,-8.399994 -1.198975,-12.599991c-2,-0.300003 -4.100037,-0.5 -6.100037,-0.600006c-0.600006,0 -1.100006,0 -1.600006,0c-0.5,0 -1,0 -1.600006,0c-1.799988,0.100006 -3.599976,0.199997 -5.399994,0.5c-0.399994,4.199997 -0.799988,8.399994 -1.199982,12.600006c-0.700012,0.099991 -1.400024,0.299988 -2,0.5c-0.200012,0 -0.400024,0.099991 -0.600006,0.099991c-1.600006,0.5 -3.200012,1.100006 -4.700012,1.900009c-1.299988,0.5 -2.5,1.199997 -3.699982,2c-3.200012,-2.700012 -6.400024,-5.300003 -9.700012,-7.900009c0,0 -0.100006,-0.099991 -0.200012,-0.199997c-0.699982,0.600006 -1.5,1.199997 -2.199982,1.800003c-1.200012,1 -2.300018,2 -3.399994,3.199997c-1.700012,1.600006 -3.200012,3.5 -4.600006,5.399994c0,0.100006 0,0.100006 0.100006,0.100006c2.599976,3.300003 5.199982,6.5 7.899994,9.600006c-0.700012,1.199997 -1.399994,2.499985 -2,3.699997c-0.700012,1.600006 -1.399994,3.199997 -1.800018,4.899994c-0.099976,0 -0.099976,0 -0.099976,0.100006c-0.200012,0.600006 -0.400024,1.300003 -0.5,2.100006c-4.300018,0.299988 -8.5,0.699982 -12.700012,1.199997c-0.200012,1.899994 -0.399994,3.899994 -0.5,5.899994c0.100006,3 0.299988,5.899002 0.799988,8.700012c4.100006,0.5 8.200012,0.899994 12.400024,1.19899c0.099976,0.699997 0.299988,1.400009 0.5,2.100998c0.5,1.700012 1.199982,3.399002 1.899994,5c0.699982,1.300003 1.299988,2.699997 2.199982,4c-2.599976,3.199997 -5.299988,6.399002 -7.799988,9.699997c2.899994,4 6.299988,7.500015 10.299988,10.300003c0,0 0,0 0.100006,0c3.200012,-2.699982 6.399994,-5.300003 9.600006,-8c0,0 0,0 0,-0.100983c1.100006,0.699997 2.100006,1.300995 3.299988,1.80098c1.800018,0.800034 3.600006,1.500015 5.400024,2c0.699982,0.19902 1.299988,0.399017 2,0.500015c0.299988,4.300018 0.799988,8.399994 1.199982,12.599976c1.800018,0.300034 3.600006,0.400024 5.5,0.500031c0.5,0 1.399994,0 2.899994,0c2.101013,-0.100006 4.200012,-0.300018 6.300049,-0.600021c0.399963,-4.199966 0.899963,-8.399979 1.199951,-12.699997c0.601013,-0.100983 1.200012,-0.300003 1.800049,-0.399994c1.699951,-0.499985 3.300964,-1.099976 4.899963,-1.899017c1.300049,-0.600967 2.700012,-1.30101 4,-2.199982c0,0 0.100037,0 0.199951,0.099976c3.200012,2.700027 6.399048,5.300034 9.800049,8c0.600037,-0.499969 1.199951,-1 1.700012,-1.398972c1.199951,-1.100998 2.398987,-2.100998 3.499939,-3.300995c1.700012,-1.800003 3.399048,-3.800003 4.899048,-5.899002c-2.599976,-3.300003 -5.299988,-6.500015 -8,-9.700012c-0.099976,0 -0.099976,-0.099991 -0.099976,-0.099991c0.700012,-1.101013 1.200012,-2.200012 1.799988,-3.30101c0.700012,-1.5 1.299988,-3.100021 1.799988,-4.69899c0,-0.200012 0.101013,-0.400009 0.101013,-0.5c0.199951,-0.600998 0.299988,-1.200012 0.499939,-1.700012c4.200012,-0.399994 8.399048,-0.800003 12.600098,-1.199997c0.299988,-1.899994 0.399902,-3.900009 0.5,-5.900009c0,-0.5 0,-1 0,-1.5c0,-0.5 0,-1 0,-1.5c-0.100098,-2 -0.200012,-4 -0.5,-5.899994c-4.200012,-0.399994 -8.399048,-0.800003 -12.600098,-1.200012c-0.199951,-0.5 -0.299988,-1.099991 -0.499939,-1.699982c-0.500061,-1.800018 -1.200012,-3.5 -1.899963,-5.200012c-0.600098,-1.302002 -1.300049,-2.501984 -2,-3.60199zm-31.100037,1c4.898987,0 9.099976,1.699997 12.699951,5.199997c3.5,3.5 5.199036,7.699997 5.199036,12.699997c0,4.900009 -1.699036,9.099991 -5.199036,12.700012c-3.600952,3.499969 -7.800964,5.200012 -12.699951,5.200012c-5,0 -9.200012,-1.700043 -12.700012,-5.200012c-3.5,-3.600021 -5.299988,-7.800003 -5.299988,-12.700012c0,-5 1.799988,-9.199997 5.299988,-12.699997s7.700012,-5.199997 12.700012,-5.199997z"/>
   <path id="svg_3" fill="#313131" d="m65.200012,42.800003c-3,-3 -6.601013,-4.5 -10.900024,-4.5c-4.199982,0 -7.899994,1.5 -10.899994,4.5c-2.899994,3 -4.399994,6.600006 -4.399994,10.899994c0,4.200012 1.5,7.800003 4.399994,10.800003l0.100006,0c3,3 6.600006,4.5 10.799988,4.5c4.300049,0 7.900024,-1.5 10.900024,-4.5l0,0c3,-3 4.499939,-6.601013 4.499939,-10.800003l0,0c0,-4.299988 -1.499939,-7.899994 -4.499939,-10.899994zm-10.900024,-0.600006c3.200012,0 5.900024,1.100006 8.200012,3.400009c2.200012,2.199997 3.299988,4.899994 3.299988,8.099991l0,0c0,3.200012 -1.099976,5.800003 -3.299988,8.099991l0,0c-2.299988,2.200012 -5,3.400024 -8.200012,3.400024c-3.099976,0 -5.899994,-1.200012 -8.099976,-3.400024l0,0c-2.300018,-2.299988 -3.400024,-4.999985 -3.400024,-8.099991c0,-3.199997 1.100006,-5.899994 3.400024,-8.099991c2.199982,-2.300003 5,-3.400009 8.099976,-3.400009z"/>
  </g>
  <g id="svg_117">
   <path id="svg_5" fill="#ffffff" d="m83.299988,32.800003c2.601013,-3.300003 5.299988,-6.5 7.900024,-9.900009c0.099976,-0.099991 0.099976,-0.099991 0.099976,-0.099991c-2.899963,-3.900009 -6.399963,-7.300003 -10.5,-10.300003c0,0 0,0 0,0.100006c-3.299988,2.599991 -6.5,5.299988 -9.599976,8c-1.299988,-0.800003 -2.5,-1.5 -3.799988,-2c-1.5,-0.800003 -3.101013,-1.400009 -4.801025,-1.900009c-0.599976,-0.199997 -1.198975,-0.300003 -1.799988,-0.5c-0.299011,-4.199997 -0.799011,-8.399994 -1.199036,-12.599991c-2,-0.300003 -4.099976,-0.5 -6.099976,-0.600006c-0.600006,0 -1.100006,0 -1.600006,0c-0.5,0 -1,0 -1.600006,0c-1.799988,0.100006 -3.599976,0.199997 -5.399994,0.5c-0.399994,4.199997 -0.799988,8.399994 -1.199982,12.600006c-0.700012,0.099991 -1.400024,0.299988 -2,0.5c-0.200012,0 -0.400024,0.099991 -0.600006,0.099991c-1.600006,0.5 -3.200012,1.100006 -4.700012,1.900009c-1.299988,0.5 -2.5,1.199997 -3.699982,2c-3.200012,-2.700012 -6.400024,-5.300003 -9.700012,-7.900009c0,0 -0.100006,-0.099991 -0.200012,-0.199997c-0.699982,0.600006 -1.5,1.199997 -2.199982,1.800003c-1.200012,1 -2.300018,2 -3.399994,3.199997c-1.700012,1.600006 -3.200012,3.5 -4.600006,5.399994c0,0.100006 0,0.100006 0.100006,0.100006c2.599976,3.300003 5.199982,6.5 7.899994,9.600006c-0.700012,1.199997 -1.399994,2.499985 -2,3.699997c-0.700012,1.600006 -1.399994,3.199997 -1.800018,4.899994c-0.099976,0 -0.099976,0 -0.099976,0.100006c-0.200012,0.600006 -0.400024,1.300003 -0.5,2.100006c-4.300018,0.299988 -8.5,0.699982 -12.700012,1.199997c-0.200012,1.899994 -0.399994,3.899994 -0.5,5.899994c0.100006,3 0.299988,5.899002 0.799988,8.699997c4.100006,0.5 8.200012,0.900009 12.400024,1.199005c0.099976,0.699997 0.299988,1.399994 0.5,2.100998c0.5,1.699997 1.199982,3.399002 1.899994,5c0.699982,1.300003 1.299988,2.699997 2.199982,4c-2.599976,3.199997 -5.299988,6.399002 -7.799988,9.699997c2.899994,4 6.299988,7.5 10.299988,10.300003c0,0 0,0 0.100006,0c3.200012,-2.699997 6.399994,-5.300003 9.600006,-8c0,0 0,0 0,-0.100998c1.100006,0.699997 2.100006,1.300995 3.299988,1.800995c1.800018,0.800003 3.600006,1.5 5.400024,2c0.699982,0.199005 1.299988,0.399002 2,0.5c0.299988,4.300003 0.799988,8.400009 1.199982,12.600006c1.800018,0.300018 3.600006,0.399994 5.5,0.5c0.5,0 1.399994,0 2.899994,0c2.101013,-0.100006 4.200012,-0.300003 6.299988,-0.600006c0.400024,-4.199997 0.900024,-8.399994 1.200012,-12.699997c0.601013,-0.100998 1.200012,-0.300003 1.799988,-0.399994c1.700012,-0.499985 3.301025,-1.100006 4.900024,-1.899017c1.299988,-0.600967 2.700012,-1.30101 4,-2.199982c0,0 0.099976,0 0.200012,0.099991c3.200012,2.700012 6.398987,5.300003 9.799988,8c0.599976,-0.5 1.200012,-1 1.700012,-1.398987c1.200012,-1.101013 2.398987,-2.101013 3.5,-3.30101c1.700012,-1.800003 3.398987,-3.800003 4.898987,-5.899002c-2.599976,-3.299988 -5.299988,-6.5 -8,-9.699997c-0.099976,0 -0.099976,-0.099991 -0.099976,-0.099991c0.699951,-1.101013 1.199951,-2.200012 1.799988,-3.30101c0.700012,-1.5 1.299988,-3.100021 1.799988,-4.699005c0,-0.199997 0.101013,-0.399994 0.101013,-0.5c0.200012,-0.600998 0.299988,-1.199997 0.5,-1.699997c4.200012,-0.399994 8.398987,-0.800003 12.599976,-1.199997c0.299988,-1.900009 0.400024,-3.900009 0.5,-5.900009c0,-0.5 0,-1 0,-1.5c0,-0.5 0,-1 0,-1.5c-0.099976,-2 -0.200012,-4 -0.5,-5.899994c-4.200012,-0.399994 -8.398987,-0.800003 -12.599976,-1.199997c-0.200012,-0.5 -0.299988,-1.100006 -0.5,-1.699997c-0.5,-1.800003 -1.200012,-3.5 -1.900024,-5.200012c-0.599976,-1.302002 -1.299988,-2.501984 -2,-3.60199zm-31.099976,1c4.898987,0 9.099976,1.699997 12.700012,5.199997c3.5,3.5 5.198975,7.699997 5.198975,12.699997c0,4.900009 -1.698975,9.100006 -5.198975,12.700012c-3.601013,3.499969 -7.801025,5.200012 -12.700012,5.200012c-5,0 -9.200012,-1.700043 -12.700012,-5.200012c-3.5,-3.600006 -5.299988,-7.800003 -5.299988,-12.700012c0,-5 1.799988,-9.199997 5.299988,-12.699997s7.700012,-5.199997 12.700012,-5.199997z"/>
   <path id="svg_6" fill="#ffffff" d="m63.200012,40.800003c-3,-3 -6.601013,-4.5 -10.900024,-4.5c-4.199982,0 -7.899994,1.5 -10.899994,4.5c-2.899994,3 -4.399994,6.600006 -4.399994,10.899994c0,4.200012 1.5,7.800003 4.399994,10.800003l0.100006,0c3,3 6.600006,4.5 10.799988,4.5c4.299988,0 7.900024,-1.5 10.900024,-4.5l0,0c3,-3 4.5,-6.600998 4.5,-10.800003l0,0c0,-4.299988 -1.5,-7.899994 -4.5,-10.899994zm-10.900024,-0.600006c3.200012,0 5.900024,1.100006 8.200012,3.400009c2.200012,2.199997 3.299988,4.899994 3.299988,8.099991l0,0c0,3.200012 -1.099976,5.800003 -3.299988,8.100006l0,0c-2.299988,2.199997 -5,3.399994 -8.200012,3.399994c-3.099976,0 -5.899994,-1.199997 -8.099976,-3.399994l0,0c-2.300018,-2.300003 -3.400024,-5 -3.400024,-8.100006c0,-3.199997 1.100006,-5.899994 3.400024,-8.099991c2.199982,-2.300003 5,-3.400009 8.099976,-3.400009z"/>
  </g>
 </g>
</svg>